<?xml version="1.0" encoding="UTF-8" standalone="no"?>
<!-- Created with Inkscape (http://www.inkscape.org/) -->

<svg
   version="1.1"
   id="svg194"
   width="481.88235"
   height="481.88235"
   viewBox="0 0 481.88235 481.88235"
   xmlns="http://www.w3.org/2000/svg"
   xmlns:svg="http://www.w3.org/2000/svg">
  <defs
     id="defs198" />
  <g
     id="g200">
    <path
       id="path455"
       style="fill:#ffffff;stroke-width:1"
       d="M 35.818359 0.27148438 C 20.1984 0.011975902 5.7761079 10.83991 2.4316406 28 C 1.1088748 34.786975 2.2709281 42.952056 5.4765625 49.388672 C 6.7070272 51.859311 39.973575 85.823562 101.14062 147.05859 L 194.91992 240.94141 L 101.14062 334.82422 C 39.973575 396.05925 6.7070272 430.02349 5.4765625 432.49414 C 4.4390106 434.57746 3.0715041 438.91807 2.4375 442.14062 C -0.86502844 458.92707 10.016193 476.05009 26.875 480.5957 C 35.335575 482.87693 44.789326 481.49882 52.601562 476.84766 C 58.424917 473.38062 270.06065 261.17512 272.41016 256.44727 C 275.61605 249.99615 276.7748 241.83971 275.44531 235.08203 C 274.8113 231.85947 273.44546 227.51886 272.41016 225.43555 C 269.72418 220.03057 57.296269 7.5125123 51.470703 4.4023438 C 46.363979 1.675954 41.025013 0.3579872 35.818359 0.27148438 z M 241.81836 0.27148438 C 226.1984 0.011975902 211.77611 10.83991 208.43164 28 C 207.10888 34.786975 208.27093 42.952056 211.47656 49.388672 C 212.70703 51.859311 245.97358 85.823562 307.14062 147.05859 L 400.91992 240.94141 L 307.14062 334.82422 C 245.97358 396.05925 212.70703 430.02349 211.47656 432.49414 C 210.43901 434.57746 209.07151 438.91807 208.4375 442.14062 C 205.13497 458.92707 216.0162 476.05009 232.875 480.5957 C 241.33558 482.87693 250.78933 481.49882 258.60156 476.84766 C 264.42492 473.38062 476.06065 261.17512 478.41016 256.44727 C 481.61605 249.99615 482.7748 241.83971 481.44531 235.08203 C 480.8113 231.85947 479.44546 227.51886 478.41016 225.43555 C 475.72418 220.03057 263.29628 7.5125123 257.4707 4.4023438 C 252.36398 1.675954 247.02501 0.3579872 241.81836 0.27148438 z " />
  </g>
</svg>
